# xmcd
#
# Track frame offsets:
#	150
#	16223
#	33309
#	51516
#	64643
#	81869
#	96761
#	114239
#	130039
#	147263
#	165381
#	181633
#	194730
#	210465
#	228921
#	245963
#	259782
#	274577
#	290709
#	304796
#	324056
#	340232
#
# Disc length: 4711 seconds
#
# Revision: 0
# Processed by: cddbd v1.5.2PL0 Copyright (c) Steve Scherf et al.
# Submitted via: dBpowerAMP V4.0
#
DISCID=35126516
DTITLE=Various Artist - ERG Nu Country Traxx Volume 169
DYEAR=2008
DGENRE=Country
TTITLE0=Sugarland - All I Wanna Do
TTITLE1=Taylor Swift - Should've Said No
TTITLE2=Brad Paisley - Waitin' On A Woman
TTITLE3=Jessica Simpson - Come On Over
TTITLE4=Craig Morgan - Love Remembers
TTITLE5=Jason Blaine - My First Car
TTITLE6=Keith Urban - You Look Good In My Shirt
TTITLE7=Rick Tippe - Radio On
TTITLE8=Blake Shelton - Home
TTITLE9=Paul Brandt - Risk
TTITLE10=Crystal Shawanda - What Do I Have To Do
TTITLE11=George Strait - Troubadour
TTITLE12=Ashton Shepherd - Sounds So Good
TTITLE13=Aaron Pritchett - Let's Get Rowdy
TTITLE14=Julian Austin - Back To Me
TTITLE15=Darius Rucker - Don't Think I Think About  It
TTITLE16=Kellie Pickler - Don't You Know You're Beautiful
TTITLE17=April Taylor - I Wanna Live Like That
TTITLE18=Chris Young - Voices
TTITLE19=Sugarland ft Little Big Town and Jake Owen - Life In A Northern Town
TTITLE20=Rissi Palmer - No Air
TTITLE21=Johnny Reid - Out Of The Blue
EXTD=
EXTT0=
EXTT1=
EXTT2=
EXTT3=
EXTT4=
EXTT5=
EXTT6=
EXTT7=
EXTT8=
EXTT9=
EXTT10=
EXTT11=
EXTT12=
EXTT13=
EXTT14=
EXTT15=
EXTT16=
EXTT17=
EXTT18=
EXTT19=
EXTT20=
EXTT21=
PLAYORDER=
